<?xml version="1.0" encoding="utf-8"?>
<!-- Generator: Adobe Illustrator 16.0.0, SVG Export Plug-In . SVG Version: 6.00 Build 0)  -->
<!DOCTYPE svg PUBLIC "-//W3C//DTD SVG 1.1//EN" "http://www.w3.org/Graphics/SVG/1.1/DTD/svg11.dtd">
<svg version="1.1" id="Calque_1" xmlns="http://www.w3.org/2000/svg" xmlns:xlink="http://www.w3.org/1999/xlink" x="0px" y="0px"
	 width="644.667px" height="178.072px" viewBox="0 0 644.667 178.072" enable-background="new 0 0 644.667 178.072"
	 xml:space="preserve">
<path fill-rule="evenodd" clip-rule="evenodd" fill="#8BD545" d="M410.746,136.315c-16.196,0.514-30.442-4.578-42.502-15.332
	c-9.396-8.377-15.941-18.574-18.824-31.05c-3.703-16.026-2.706-31.694,4.993-46.175c9.279-17.455,23.731-29.12,43.531-32.669
	c15.023-2.692,29.813-1.527,43.606,5.997c12.552,6.847,21.23,17.064,26.561,30.215c1.438,3.546,2.672,7.176,3.93,10.793
	c1.328,3.819,0.938,4.588-3.2,4.923c-6.713,0.542-13.443,0.867-20.171,1.173c-3.611,0.165-7.237,0.128-10.771,0.998
	c-2.243,0.551-3.188-0.742-3.948-2.483c-1.547-3.545-3.522-6.787-5.953-9.848c-7.597-9.563-25.128-9.218-33.872-1.832
	c-13.118,11.083-13.493,34.018,0.214,44.674c12.078,9.39,34.232,6.56,39.373-11.502c0.306-1.074,0.858-2.077,1.162-3.152
	c1.814-6.428,1.803-6.487,8.281-6.364c8.856,0.167,17.709,0.451,26.564,0.634c2.232,0.046,3.506,0.54,3.078,3.27
	c-2.352,15.008-7.098,28.889-17.836,40.192C442.904,131.469,427.9,136.561,410.746,136.315z"/>
<path fill-rule="evenodd" clip-rule="evenodd" fill="#FFFFFF" d="M66.564,136.325c-40.525,0.828-71.097-36.026-61.553-77.216
	c5.893-25.437,22.07-41.792,47.45-47.56c24.995-5.68,50.689,1.791,66.135,25.456c4.605,7.057,7.513,14.897,9.657,23.028
	c0.533,2.02-0.263,2.688-2.194,2.811c-10.834,0.683-21.667,1.379-32.492,2.196c-2.393,0.18-3.243-1.001-4.017-2.944
	c-3.155-7.926-8.197-13.867-16.91-16.047c-14.348-3.588-28.063,4.756-31.766,19.458c-3.512,13.944,2.195,27.572,13.869,33.111
	c15.347,7.283,32.464-1.104,36.072-17.671c1.361-6.25,1.363-6.301,7.584-6.18c9.107,0.176,18.211,0.461,27.318,0.632
	c1.832,0.035,3.305,0.177,2.989,2.583c-2.757,21.01-13.395,44.894-37.963,54.231C82.838,135.219,74.634,136.563,66.564,136.325z"/>
<path fill-rule="evenodd" clip-rule="evenodd" fill="#FFFFFF" d="M299.781,128.344c-5.717,2.482-10.492,4.596-15.846,4.797
	c-16.101,0.605-27.53-12.061-28.694-27.686c-1.384-18.576-0.348-37.218-0.645-55.83c-0.054-3.388,0.98-4.404,4.428-4.295
	c8.489,0.271,16.994,0.181,25.489,0.027c2.481-0.045,3.116,0.709,3.097,3.126c-0.11,14.621-0.083,29.242-0.059,43.862
	c0.01,5.969,2.312,8.704,6.928,8.591c2.932-0.071,4.67-1.673,5.47-4.256c0.661-2.137,0.837-4.384,0.83-6.659
	c-0.047-13.746,0.078-27.493-0.088-41.237c-0.035-2.903,0.84-3.489,3.556-3.432c8.494,0.179,16.995,0.146,25.491,0.015
	c2.436-0.038,3.481,0.355,3.469,3.178c-0.109,26.367,0.105,52.736-0.104,79.102c-0.224,28.115-23.408,49.379-51.449,47.496
	c-4.119-0.277-8.1-1.34-12.017-2.654c-1.67-0.561-2.323-1.5-2.307-3.299c0.07-7.996,0.069-15.996-0.029-23.992
	c-0.031-2.473,0.377-3.295,3.133-2.35c7.452,2.557,14.76,2.27,21.476-2.344C295.888,137.774,297.894,133.706,299.781,128.344z"/>
<path fill-rule="evenodd" clip-rule="evenodd" fill="#8BD545" d="M574.473,108.233c0.003,7.119-0.109,14.24,0.06,21.355
	c0.065,2.742-0.688,3.707-3.555,3.65c-8.739-0.174-17.486-0.168-26.227-0.006c-2.679,0.051-3.317-0.807-3.293-3.379
	c0.121-12.863,0.105-25.729,0.026-38.591c-0.044-7.039-3.697-12.1-8.976-14.105c-8.326-3.163-15.733,4.789-16.348,11.716
	c-0.875,9.878,7.686,16.713,17.086,13.418c2.84-0.995,2.891,0.094,2.881,2.225c-0.04,8.992-0.1,17.986,0.038,26.977
	c0.039,2.543-0.771,3.584-3.321,3.771c-20.642,1.51-37.625-7.672-45.889-26.049c-6.736-14.981-6.167-30.601,3.063-44.985
	c10.621-16.553,29.113-23.751,48.503-20.394c23.04,3.989,35.688,21.876,35.936,44.163
	C574.532,94.742,574.469,101.487,574.473,108.233z"/>
<path fill-rule="evenodd" clip-rule="evenodd" fill="#FFFFFF" d="M225.055,30.062c0.003,4.747,0.078,9.496-0.033,14.241
	c-0.046,1.983,0.646,2.611,2.602,2.528c3.242-0.14,6.497,0.044,9.742-0.053c1.923-0.058,2.725,0.701,2.72,2.603
	c-0.024,9.87-0.028,19.739,0.012,29.607c0.008,2.037-1.055,2.527-2.835,2.496c-3.122-0.054-6.254,0.147-9.366-0.038
	c-2.411-0.143-2.985,0.838-2.866,3.04c0.595,11.002,4.366,14.625,13.191,15.078c2.067,0.106,2.479,0.931,2.468,2.757
	c-0.063,9.744-0.077,19.488,0,29.232c0.015,1.936-0.594,2.516-2.54,2.629c-23.206,1.363-43.923-16.945-45.363-40.086
	c-1.615-25.959-0.332-51.942-0.801-77.91c-0.04-2.203,0.586-3.083,2.954-3.052c9.118,0.12,18.241,0.144,27.357-0.012
	c2.514-0.043,2.852,0.963,2.794,3.074C224.966,20.815,225.053,25.439,225.055,30.062z"/>
<path fill-rule="evenodd" clip-rule="evenodd" fill="#8BD545" d="M626.247,109.02c0,7.943-0.082,14.438,0.043,20.928
	c0.047,2.348-0.54,3.32-3.104,3.281c-8.986-0.137-17.979-0.127-26.967-0.01c-2.391,0.031-2.961-0.92-2.952-3.088
	c0.06-14.107-0.278-28.225,0.146-42.32c0.258-8.504,0.625-17.089,4.789-25.032c6.277-11.976,16.212-18.173,29.35-19.517
	c3.938-0.403,7.964-0.369,11.934,0.401c1.784,0.346,2.48,1.079,2.468,2.967c-0.066,9.986-0.026,19.974,0.023,29.961
	c0.011,2.129-0.688,2.445-2.724,1.839c-6.864-2.045-11.183,0.683-12.318,7.754C625.643,94.239,626.54,102.377,626.247,109.02z"/>
<path fill-rule="evenodd" clip-rule="evenodd" fill="#FFFFFF" d="M143.387,88.902c0-13.245,0.072-26.491-0.056-39.734
	c-0.028-2.92,0.782-3.89,3.815-3.819c8.742,0.205,17.493,0.144,26.238,0.023c2.246-0.03,2.997,0.516,2.991,2.893
	c-0.076,27.365-0.073,54.73,0.025,82.095c0.009,2.506-0.973,2.822-3.082,2.801c-8.871-0.09-17.745-0.133-26.614,0.031
	c-2.697,0.049-3.399-0.869-3.381-3.43c0.098-13.619,0.046-27.24,0.046-40.86C143.375,88.902,143.381,88.902,143.387,88.902z"/>
<path fill-rule="evenodd" clip-rule="evenodd" fill="#FFFFFF" d="M143.931,22.174c0.014-8.56,7.381-15.688,16.141-15.723
	c8.365-0.034,16.924,7.699,16.299,16.074c-0.686,9.186-6.691,14.914-16.336,15.051C150.646,37.71,143.917,31.157,143.931,22.174z"/>
</svg>
